<svg width="113" height="27" viewBox="0 0 113 27" fill="none" xmlns="http://www.w3.org/2000/svg">
<path d="M44.2 12.2L41.4 17.2H38.6L35.8 12.2V20H32.2V6H36L40 13.4L44 6H47.8V20H44.2V12.2ZM61.4578 20H50.3578V6H61.4578V8.8H53.9578V11.5H59.8578V14.3H53.9578V17.2H61.4578V20ZM71.0031 6C72.5098 6 73.6498 6.39333 74.4231 7.18C75.2098 7.95333 75.6031 9.09333 75.6031 10.6V15.4C75.6031 16.9067 75.2098 18.0533 74.4231 18.84C73.6498 19.6133 72.5098 20 71.0031 20H63.2031V6H71.0031ZM72.0031 10.6C72.0031 9.4 71.4031 8.8 70.2031 8.8H66.8031V17.2H70.2031C71.4031 17.2 72.0031 16.6 72.0031 15.4V10.6ZM84.3477 20H77.1477V17.2H78.9477V8.8H77.1477V6H84.3477V8.8H82.5477V17.2H84.3477V20ZM97.0961 19.8C94.1228 20.0667 91.6561 20.2 89.6961 20.2C88.3894 20.2 87.4294 19.8933 86.8161 19.28C86.2028 18.6667 85.8961 17.7067 85.8961 16.4V10C85.8961 8.6 86.2094 7.58667 86.8361 6.96C87.4761 6.32 88.4961 6 89.8961 6H97.0961V8.8H90.6961C89.8961 8.8 89.4961 9.2 89.4961 10V16.4C89.4961 16.7067 89.5828 16.9533 89.7561 17.14C89.9428 17.3133 90.1761 17.4 90.4561 17.4C90.7361 17.4 91.0428 17.4 91.3761 17.4C91.7094 17.3867 92.0561 17.3733 92.4161 17.36C92.7761 17.3467 93.1361 17.3333 93.4961 17.32C93.8694 17.3067 94.3428 17.28 94.9161 17.24C95.5028 17.2 96.2294 17.1533 97.0961 17.1V19.8ZM101.348 20H97.4484L102.748 6H106.748L112.048 20H108.148L107.248 17.5H102.248L101.348 20ZM103.148 14.9H106.348L104.748 10.2L103.148 14.9Z" fill="#2E74FF"/>
<g clip-path="url(#clip0_16_6)">
<path d="M18.1406 0.84375H8.85937V8.85937H0.84375V18.1406H8.85937V26.1562H18.1406V18.1406H26.1562V8.85937H18.1406V0.84375ZM24.4687 10.5469V16.4531H16.4531V24.4687H10.5469V16.4531H2.53125V10.5469H10.5469V2.53125H16.4531V10.5469H24.4687Z" fill="#2E74FF"/>
</g>
<defs>
<clipPath id="clip0_16_6">
<rect width="27" height="27" fill="white"/>
</clipPath>
</defs>
</svg>
